<?xml version="1.0" encoding="utf-8" ?> 
<svg class="albero">
    <rect class="tronco" x="436.17300131061603" y="170" width="14" fill="brown"></rect>
    <path class="radici1" d="M10 80 Q 95 10, 180 80" fill="transparent"/>    
    <path class="radici2" d="M10 80 Q 95 10, 180 80" fill="transparent"/>    
    <path class="radici3" d="M10 80 Q 95 10, 180 80" fill="transparent"/>    
    <circle class="cerchioEsterno" cx="436.17300131061603" cy="100" r="70" fill="lightgreen"></circle>
    <circle class="cerchio" cx="436.17300131061603" cy="100" r="63.63636363636363" fill="green"></circle>
    <circle class="cerchioInterno" cx="436.17300131061603" cy="100" r="35" fill="darkgreen"></circle>
    <ellipse class="frutto0" cx="460.77763215377894" cy="106" rx="5" ry="5" fill="red"></ellipse>
    <ellipse class="frutto1" cx="460.77763215377894" cy="106" rx="5" ry="5" fill="red"></ellipse>
    <ellipse class="frutto2" cx="460.77763215377894" cy="106" rx="5" ry="5" fill="red"></ellipse>
    <ellipse class="frutto3" cx="460.77763215377894" cy="106" rx="5" ry="5" fill="red"></ellipse>
    <ellipse class="frutto4" cx="460.77763215377894" cy="106" rx="5" ry="5" fill="red"></ellipse>
    <ellipse class="frutto5" cx="460.77763215377894" cy="106" rx="5" ry="5" fill="red"></ellipse>
    <ellipse class="frutto6" cx="460.77763215377894" cy="106" rx="5" ry="5" fill="red"></ellipse>
    <ellipse class="frutto7" cx="460.77763215377894" cy="106" rx="5" ry="5" fill="red"></ellipse>
  </svg>